<svg xmlns="http://www.w3.org/2000/svg" height="24" viewBox="0 -960 960 960" width="24"><path d="M428.456-71.87q-28.195 0-48.532-18.597-20.337-18.598-24.337-45.794l-9-66.239q-11.087-4.282-21.033-10.326-9.945-6.043-19.511-12.848l-61.76 26q-25.957 11.239-52.153 2.12-26.195-9.12-40.674-33.315l-51.543-90.37q-14.478-23.957-8.359-51.033 6.12-27.076 28.076-44.554l52.761-40q-.761-6.044-.761-11.587v-23.174q0-5.543.761-11.587l-52.761-39.761q-22.195-17.478-28.195-44.554t8.478-51.272l51.543-90.13q14.479-23.957 40.555-33.196 26.076-9.239 52.032 2l62.479 26q9.565-6.804 19.652-12.728 10.087-5.924 20.413-10.207l9-66.478q4-27.435 24.337-46.033 20.337-18.598 48.532-18.598h103.088q28.195 0 48.532 18.598 20.337 18.598 24.337 46.033l9 66.478q11.087 4.283 21.033 10.207 9.945 5.924 19.511 12.728l61.76-26q25.957-11.239 52.153-2 26.195 9.239 40.674 33.196l51.543 90.13q14.478 24.196 8.478 51.272-6 27.076-28.195 44.554l-53 39.761q.761 6.044.761 11.587V-480q0 6.043-.12 11.587-.12 5.543-1.641 11.587l53 39.761q22.195 17.478 28.195 44.554t-8.478 51.272l-52.543 90.37q-14.479 23.956-40.555 33.195t-52.032-2l-60.479-26q-9.565 6.805-19.652 12.848-10.087 6.044-20.413 10.326l-9 66.239q-4 27.196-24.337 45.794-20.337 18.598-48.532 18.598H428.456ZM481.283-340q58 0 99-41t41-99q0-58-41-99t-99-41q-58.761 0-99.381 41-40.619 41-40.619 99t40.619 99q40.62 41 99.381 41Z"/></svg>