<!-- <svg xmlns="http://www.w3.org/2000/svg" height="24" viewBox="0 -960 960 960" width="24"><path d="M248.044-.087h-125q-51.3 0-87.128-35.829Q.086-71.745.086-123.044v-125h122.958v125h125V-.087Zm464.477 0v-122.957h125v-125h122.958v125q0 51.3-35.829 87.128-35.829 35.83-87.129 35.83h-125Zm-232.559-189q-131.658 0-241.767-79.761Q128.087-348.609 78.956-480q49.131-131.391 158.84-211.435 109.709-80.044 242.454-80.044 132.363 0 242.231 80.044Q832.348-611.391 882.044-480 832.348-349.174 722.55-269.13q-109.799 80.043-242.588 80.043Zm-.194-144.478q61.232 0 105.08-43.217 43.848-43.216 43.848-103.152t-43.919-103.218q-43.918-43.283-105.15-43.283-60.102 0-101.951 42.506-41.85 42.505-41.85 104 0 61.494 41.92 103.929 41.921 42.435 102.022 42.435Zm-.108-111.653q-14.399 0-24.703-10.195-10.305-10.196-10.305-24.761t10.196-24.587q10.196-10.021 24.761-10.021t24.586 10.079q10.022 10.079 10.022 24.478 0 14.399-10.079 24.703t-24.478 10.304ZM.087-712.521v-125q0-51.3 35.829-87.129 35.829-35.829 87.128-35.829h125v122.958h-125v125H.087Zm837.434 0v-125h-125v-122.958h125q51.3 0 87.129 35.829 35.829 35.829 35.829 87.129v125H837.521Z"/></svg> -->
<svg xmlns="http://www.w3.org/2000/svg" height="24" viewBox="0 -960 960 960" width="24">
    <path fill="#FFD838" d="M248.044-.087h-125q-51.3 0-87.128-35.829Q.086-71.745.086-123.044v-125h122.958v125h125V-.087Zm464.477 0v-122.957h125v-125h122.958v125q0 51.3-35.829 87.128-35.829 35.83-87.129 35.83h-125Zm-232.559-189q-131.658 0-241.767-79.761Q128.087-348.609 78.956-480q49.131-131.391 158.84-211.435 109.709-80.044 242.454-80.044 132.363 0 242.231 80.044Q832.348-611.391 882.044-480 832.348-349.174 722.55-269.13q-109.799 80.043-242.588 80.043Zm-.194-144.478q61.232 0 105.08-43.217 43.848-43.216 43.848-103.152t-43.919-103.218q-43.918-43.283-105.15-43.283-60.102 0-101.951 42.506-41.85 42.505-41.85 104 0 61.494 41.92 103.929 41.921 42.435 102.022 42.435Zm-.108-111.653q-14.399 0-24.703-10.195-10.305-10.196-10.305-24.761t10.196-24.587q10.196-10.021 24.761-10.021t24.586 10.079q10.022 10.079 10.022 24.478 0 14.399-10.079 24.703t-24.478 10.304ZM.087-712.521v-125q0-51.3 35.829-87.129 35.829-35.829 87.128-35.829h125v122.958h-125v125H.087Zm837.434 0v-125h-125v-122.958h125q51.3 0 87.129 35.829 35.829 35.829 35.829 87.129v125H837.521Z"/>
</svg>