<!-- <svg xmlns="http://www.w3.org/2000/svg" height="24" viewBox="0 -960 960 960" width="24"><path d="M244.522-142.477q-51.131 0-88.392-34.435-37.26-34.435-39.521-85.565H22.477v-449.044q0-44.305 30.849-75.153 30.848-30.849 75.153-30.849h560v151.522h114.347l134.697 179.783v223.741h-89.61q-2.261 51.13-39.522 85.565Q771.13-142.477 720-142.477t-88.391-34.435q-37.261-34.435-39.522-85.565H371.87q-2.261 50.565-39.239 85.282-36.979 34.718-88.109 34.718Zm0-89.044q17 0 28.5-11.5t11.5-28.5q0-17-11.5-28.5t-28.5-11.5q-17 0-28.5 11.5t-11.5 28.5q0 17 11.5 28.5t28.5 11.5Zm475.478 0q17 0 28.5-11.5t11.5-28.5q0-17-11.5-28.5t-28.5-11.5q-17 0-28.5 11.5t-11.5 28.5q0 17 11.5 28.5t28.5 11.5ZM688.479-440h151.347l-90-120h-61.347v120Z"/></svg> -->
<svg xmlns="http://www.w3.org/2000/svg" height="24" viewBox="0 -960 960 960" width="24">
    <path fill="#93C572" d="M244.522-142.477q-51.131 0-88.392-34.435-37.26-34.435-39.521-85.565H22.477v-449.044q0-44.305 30.849-75.153 30.848-30.849 75.153-30.849h560v151.522h114.347l134.697 179.783v223.741h-89.61q-2.261 51.13-39.522 85.565Q771.13-142.477 720-142.477t-88.391-34.435q-37.261-34.435-39.522-85.565H371.87q-2.261 50.565-39.239 85.282-36.979 34.718-88.109 34.718Zm0-89.044q17 0 28.5-11.5t11.5-28.5q0-17-11.5-28.5t-28.5-11.5q-17 0-28.5 11.5t-11.5 28.5q0 17 11.5 28.5t28.5 11.5Zm475.478 0q17 0 28.5-11.5t11.5-28.5q0-17-11.5-28.5t-28.5-11.5q-17 0-28.5 11.5t-11.5 28.5q0 17 11.5 28.5t28.5 11.5ZM688.479-440h151.347l-90-120h-61.347v120Z"/>
</svg>