<!-- <svg xmlns="http://www.w3.org/2000/svg" height="24" viewBox="0 -960 960 960" width="24"><path d="M242.477-351.956v-48.479h-100v-97.522h200v-62.478H191.521q-20.391 0-34.717-14.326-14.327-14.326-14.327-34.718v-160q0-20.391 14.327-34.435 14.326-14.043 34.717-14.043h50.956v-48.479H340v48.479h100v97.522H240v62.478h151.521q20.392 0 34.435 14.043Q440-629.87 440-609.479v160q0 20.392-14.044 34.718-14.043 14.326-34.435 14.326H340v48.479h-97.523ZM566.479-99.521 388-278.565l71.827-71.261 106.652 106.652 219.217-218.652 71.827 71.261L566.479-99.521Z"/></svg> -->
<svg xmlns="http://www.w3.org/2000/svg" height="24" viewBox="0 -960 960 960" width="24">
    <path fill="#1AA4FA" d="M242.477-351.956v-48.479h-100v-97.522h200v-62.478H191.521q-20.391 0-34.717-14.326-14.327-14.326-14.327-34.718v-160q0-20.391 14.327-34.435 14.326-14.043 34.717-14.043h50.956v-48.479H340v48.479h100v97.522H240v62.478h151.521q20.392 0 34.435 14.043Q440-629.87 440-609.479v160q0 20.392-14.044 34.718-14.043 14.326-34.435 14.326H340v48.479h-97.523ZM566.479-99.521 388-278.565l71.827-71.261 106.652 106.652 219.217-218.652 71.827 71.261L566.479-99.521Z"/>
</svg>