<!-- <svg xmlns="http://www.w3.org/2000/svg" height="24" viewBox="0 -960 960 960" width="24"><path d="M480-57.044q-87.944 0-165.364-33.22-77.42-33.219-134.287-90.085-56.866-56.867-90.086-134.287-33.22-77.42-33.22-165.364 0-88.2 33.28-165.563 33.278-77.362 90.337-134.381 57.059-57.018 134.285-90.015Q392.172-902.956 480-902.956q67.261 0 127.661 18.944 60.4 18.944 111.252 54.36l-76.435 76.435q-35.95-21.082-76.665-33.258-40.716-12.177-85.813-12.177-133.372 0-226.012 92.604-92.64 92.605-92.64 225.913 0 133.309 92.599 226.048 92.6 92.739 225.913 92.739 133.314 0 226.053-92.644Q798.652-346.635 798.652-480q0-15.397-1.783-30.794-1.782-15.397-4.782-30.336l85.304-85.305q12.546 34.205 19.056 70.768 6.509 36.564 6.509 75.345 0 88.626-32.997 165.615-32.997 76.988-90.015 134.047-57.019 57.059-134.381 90.338Q568.2-57.044 480-57.044Zm-56-224.608L240.218-464.87l72.304-72.304L424-425.13l406.652-407.218 72.304 72.305L424-281.652Z"/></svg> -->
<svg xmlns="http://www.w3.org/2000/svg" height="24" viewBox="0 -960 960 960" width="24">
    <path fill="#008000" d="M480-57.044q-87.944 0-165.364-33.22-77.42-33.219-134.287-90.085-56.866-56.867-90.086-134.287-33.22-77.42-33.22-165.364 0-88.2 33.28-165.563 33.278-77.362 90.337-134.381 57.059-57.018 134.285-90.015Q392.172-902.956 480-902.956q67.261 0 127.661 18.944 60.4 18.944 111.252 54.36l-76.435 76.435q-35.95-21.082-76.665-33.258-40.716-12.177-85.813-12.177-133.372 0-226.012 92.604-92.64 92.605-92.64 225.913 0 133.309 92.599 226.048 92.6 92.739 225.913 92.739 133.314 0 226.053-92.644Q798.652-346.635 798.652-480q0-15.397-1.783-30.794-1.782-15.397-4.782-30.336l85.304-85.305q12.546 34.205 19.056 70.768 6.509 36.564 6.509 75.345 0 88.626-32.997 165.615-32.997 76.988-90.015 134.047-57.019 57.059-134.381 90.338Q568.2-57.044 480-57.044Zm-56-224.608L240.218-464.87l72.304-72.304L424-425.13l406.652-407.218 72.304 72.305L424-281.652Z"/>
</svg>